# xmcd
#
# Track frame offsets: 
#        150
#        16564
#        32145
#        49287
#        67771
#        94287
#        111509
#        125750
#        144938
#
# Disc length: 2189 seconds
#
# Revision: 0
# Processed by: cddbd v1.5.2PL0 Copyright (c) Steve Scherf et al.
# Submitted via: ExactAudioCopyFreeDBPlugin 1.0
#
DISCID=77088b09
DTITLE=Jørgen Sandvik  - Permanent Vacation
DYEAR=2018
DGENRE=Blues
TTITLE0=The Devil Got My Woman
TTITLE1=Tell Your Mother
TTITLE2=Is There Hope 
TTITLE3=Midnight Special
TTITLE4=It Will Happen
TTITLE5=This Hole Is Not So Deep
TTITLE6=Will People Talk About Me
TTITLE7=The Law
TTITLE8=The World Keeps On Turning
EXTD=
EXTT0=
EXTT1=
EXTT2=
EXTT3=
EXTT4=
EXTT5=
EXTT6=
EXTT7=
EXTT8=
PLAYORDER=
